<?xml version="1.0" standalone="no"?>
<!DOCTYPE svg PUBLIC "-//W3C//DTD SVG 20010904//EN"
 "http://www.w3.org/TR/2001/REC-SVG-20010904/DTD/svg10.dtd">
<svg version="1.0" xmlns="http://www.w3.org/2000/svg"
 width="512.000000pt" height="512.000000pt" viewBox="0 0 512.000000 512.000000"
 preserveAspectRatio="xMidYMid meet">
<metadata>
Created by potrace 1.14, written by Peter Selinger 2001-2017
</metadata>
<g transform="translate(0.000000,512.000000) scale(0.100000,-0.100000)"
fill="#000000" stroke="none">
<path d="M4837 5114 c-1 -1 -36 -5 -77 -8 -94 -8 -178 -16 -210 -22 -14 -2
-45 -6 -70 -10 -25 -3 -83 -12 -130 -20 -47 -8 -107 -19 -135 -24 -65 -11
-266 -57 -331 -76 -28 -8 -60 -17 -70 -19 -230 -54 -639 -211 -899 -346 -142
-74 -408 -236 -425 -259 -3 -4 -15 -12 -28 -19 -29 -15 -221 -170 -292 -236
-76 -70 -183 -179 -244 -248 l-51 -59 -65 7 c-71 7 -280 7 -320 1 -14 -3 -47
-7 -74 -11 -259 -33 -553 -156 -783 -327 -236 -176 -467 -427 -595 -648 -32
-56 -32 -119 0 -172 38 -61 73 -70 302 -83 52 -3 129 -7 170 -10 41 -3 109 -8
150 -10 80 -5 242 -16 300 -20 19 -1 46 -3 59 -4 20 -1 4 -20 -104 -128 -70
-70 -134 -141 -142 -158 -36 -69 -12 -146 70 -222 87 -81 85 -73 27 -136 -273
-296 -461 -782 -494 -1281 -6 -99 35 -174 108 -194 92 -26 425 25 683 104 268
82 531 231 718 406 l30 28 70 -69 c74 -73 95 -87 141 -95 64 -12 98 9 235 145
72 71 134 128 136 125 5 -5 8 -33 18 -206 3 -58 8 -132 10 -165 2 -33 7 -100
10 -150 3 -49 8 -126 11 -170 2 -44 7 -107 8 -140 8 -123 65 -185 167 -180 58
2 95 24 282 164 113 85 239 205 354 339 238 276 393 625 428 962 7 69 7 268 0
336 -7 60 -7 60 28 87 39 30 252 240 307 302 426 488 733 1137 899 1900 66
307 98 553 100 787 l2 146 -31 36 c-17 19 -45 39 -63 45 -26 8 -182 12 -190 5z"/>
</g>
</svg>
